<svg xmlns="http://www.w3.org/2000/svg" width="208.667" height="35.575" viewBox="0 0 208.667 35.575">
  <g id="Group_2803" data-name="Group 2803" transform="translate(-1662.333 -21)">
    <rect id="Rectangle_1476" data-name="Rectangle 1476" width="208.667" height="35.575" rx="17.787" transform="translate(1662.333 21)" fill="#f6f6f6"/>
    <g id="Search_Input" data-name="Search Input" transform="translate(1729.333 30)">
      <text id="Search_" data-name="Search " transform="translate(29.862 13.808)" fill="#c1c1c1" font-size="12" font-family="Montserrat-Regular, Montserrat" opacity="0.64"><tspan x="0" y="0">Search </tspan></text>
      <g id="icon_search" transform="translate(0 0)">
        <path id="icon_search-2" data-name="icon_search" d="M14.587,12.9A7.783,7.783,0,0,0,16.195,8.1,8.063,8.063,0,0,0,8.155,0,8.161,8.161,0,0,0,0,8.1a8.161,8.161,0,0,0,8.155,8.1,7.657,7.657,0,0,0,4.824-1.6l3.446,3.424a1.115,1.115,0,0,0,1.608,0,1.1,1.1,0,0,0,0-1.6Zm-6.432.913A5.768,5.768,0,0,1,2.3,8.1a5.858,5.858,0,0,1,11.715,0A5.768,5.768,0,0,1,8.155,13.811Z" fill="#bcbccb"/>
      </g>
    </g>
  </g>
</svg>
